<svg height="512pt" viewBox="0 -95 512.001 512" width="512pt" xmlns="http://www.w3.org/2000/svg"><path d="m377.371094 46.839844v-22.125c0-6.953125-5.613282-12.644532-12.472656-12.644532h-11.542969c-6.859375 0-12.472657 5.691407-12.472657 12.644532v22.125zm0 0" fill="#ffd500"/><path d="m371.316406 13.902344c-1.878906-1.152344-4.070312-1.832032-6.417968-1.832032h-11.542969c-6.859375 0-12.472657 5.691407-12.472657 12.644532v22.125h24.382813v-22.125c0-4.574219 2.4375-8.589844 6.050781-10.8125zm0 0" fill="#fbc700"/><path d="m490.691406 153.75-47.730468-11.480469c-4.027344-.96875-7.292969-3.886719-8.695313-7.765625l-25.273437-69.992187c-3.964844-10.976563-14.421876-18.296875-26.140626-18.296875h-68.300781v209.792968h187.925781v-87.355468c0-7.082032-4.871093-13.242188-11.785156-14.902344zm0 0" fill="#d9edff"/><path d="m349.453125 46.214844h-34.902344v209.792968h34.902344zm0 0" fill="#b4dbff"/><path d="m434.265625 134.503906-22.292969-61.730468h-50.476562c-6.859375 0-12.472656 5.585937-12.472656 12.417968v40.867188c0 6.828125 5.613281 12.417968 12.472656 12.417968h75.140625c-1.019531-1.148437-1.832031-2.488281-2.371094-3.972656zm0 0" fill="#60b8ff"/><path d="m379.671875 126.058594v-40.867188c0-6.828125 5.613281-12.417968 12.472656-12.417968h-30.648437c-6.859375 0-12.472656 5.589843-12.472656 12.417968v40.867188c0 6.832031 5.613281 12.417968 12.472656 12.417968h30.648437c-6.859375 0-12.472656-5.585937-12.472656-12.417968zm0 0" fill="#22a7ff"/><path d="m314.550781 189.820312h163.488281v29.941407h-163.488281zm0 0" fill="#ff646f"/><path d="m314.550781 189.820312h34.902344v29.941407h-34.902344zm0 0" fill="#ff4755"/><path d="m502.476562 182.882812h-22.546874c-3.328126 0-6.050782 2.710938-6.050782 6.019532v31.933594c0 3.308593 2.722656 6.019531 6.050782 6.019531h22.546874zm0 0" fill="#60b8ff"/><path d="m494.226562 220.835938v-31.933594c0-3.308594 2.71875-6.019532 6.046876-6.019532h-20.347657c-3.324219 0-6.046875 2.710938-6.046875 6.019532v31.933594c0 3.308593 2.722656 6.019531 6.046875 6.019531h20.347657c-3.328126 0-6.046876-2.710938-6.046876-6.019531zm0 0" fill="#22a7ff"/><path d="m297.992188 0h-271.433594c-9.621094 0-17.417969 7.796875-17.417969 17.417969v238.609375l306.269531-.019532v-238.589843c0-9.621094-7.800781-17.417969-17.417968-17.417969zm0 0" fill="#ff646f"/><path d="m40.046875 17.417969c0-9.621094 7.796875-17.417969 17.414063-17.417969h-30.902344c-9.621094 0-17.417969 7.796875-17.417969 17.417969v238.609375h30.90625zm0 0" fill="#ff4755"/><path d="m244.796875 126.667969c0 44.429687-36.019531 80.449219-80.453125 80.449219-44.429688 0-80.449219-36.019532-80.449219-80.449219 0-44.433594 36.019531-80.453125 80.449219-80.453125 44.433594 0 80.453125 36.019531 80.453125 80.453125zm0 0" fill="#d9edff"/><path d="m114.796875 126.667969c0-39.144531 27.964844-71.746094 65-78.953125-5.003906-.972656-10.164063-1.496094-15.453125-1.496094-44.433594 0-80.453125 36.019531-80.453125 80.449219 0 44.433593 36.019531 80.453125 80.453125 80.453125 5.285156 0 10.449219-.527344 15.453125-1.5-37.035156-7.210938-65-39.808594-65-78.953125zm0 0" fill="#b4dbff"/><path d="m201.894531 113.40625h-22.066406c-1.226563 0-2.226563-.996094-2.226563-2.226562v-22.066407c0-1.230469-.996093-2.226562-2.226562-2.226562h-22.066406c-1.230469 0-2.226563.996093-2.226563 2.226562v22.066407c0 1.230468-.996093 2.226562-2.226562 2.226562h-22.066407c-1.230468 0-2.226562 1-2.226562 2.226562v22.066407c0 1.230469.996094 2.226562 2.226562 2.226562h22.066407c1.230469 0 2.226562 1 2.226562 2.230469v22.0625c0 1.230469.996094 2.230469 2.226563 2.230469h22.066406c1.230469 0 2.226562-1 2.226562-2.230469v-22.0625c0-1.230469 1-2.230469 2.226563-2.230469h22.066406c1.230469 0 2.226563-.996093 2.226563-2.226562v-22.066407c.003906-1.226562-.992188-2.226562-2.226563-2.226562zm0 0" fill="#ff646f"/><path d="m201.894531 113.40625h-22.066406c-1.226563 0-2.226563-.996094-2.226563-2.226562v-22.066407c0-1.230469-.996093-2.226562-2.226562-2.226562h-22.066406c-1.230469 0-2.226563.996093-2.226563 2.226562v22.066407c0 1.230468-.996093 2.226562-2.226562 2.226562h-22.066407c-1.230468 0-2.226562 1-2.226562 2.226562v22.066407c0 1.230469.996094 2.226562 2.226562 2.226562h22.066407c1.230469 0 2.226562 1 2.226562 2.230469v22.0625c0 1.230469.996094 2.230469 2.226563 2.230469h22.066406c1.230469 0 2.226562-1 2.226562-2.230469v-22.0625c0-1.230469 1-2.230469 2.226563-2.230469h22.066406c1.230469 0 2.226563-.996093 2.226563-2.226562v-22.066407c.003906-1.226562-.992188-2.226562-2.226563-2.226562zm0 0" fill="#ff646f"/><g fill="#ff4755"><path d="m170.140625 111.179688v-22.066407c0-1.230469 1-2.226562 2.226563-2.226562h-19.054688c-1.230469 0-2.226562.996093-2.226562 2.226562v22.066407c0 1.230468-1 2.226562-2.230469 2.226562h19.058593c1.230469 0 2.226563-.996094 2.226563-2.226562zm0 0"/><path d="m143.621094 137.699219v-22.066407c0-1.226562.996094-2.226562 2.226562-2.226562h-19.058594c-1.226562 0-2.226562 1-2.226562 2.226562v22.066407c0 1.230469 1 2.226562 2.226562 2.226562h19.058594c-1.230468 0-2.226562-.996093-2.226562-2.226562zm0 0"/><path d="m170.140625 164.21875v-22.0625c0-1.230469-.996094-2.230469-2.226563-2.230469h-19.058593c1.230469 0 2.230469 1 2.230469 2.230469v22.0625c0 1.230469.996093 2.230469 2.226562 2.230469h19.054688c-1.226563 0-2.226563-1-2.226563-2.230469zm0 0"/></g><path d="m502.476562 255.324219c-6.113281 0-484.132812 0-492.953124 0-5.257813 0-9.523438 4.359375-9.523438 9.742187v11.144532c0 5.378906 4.265625 9.742187 9.523438 9.742187h492.953124c5.261719 0 9.523438-4.363281 9.523438-9.742187v-11.144532c0-5.382812-4.261719-9.742187-9.523438-9.742187zm0 0" fill="#ffe55a"/><path d="m502.476562 267.921875c-6.011718 0-477.269531 0-492.953124 0-4.074219 0-7.539063-2.621094-8.902344-6.296875-.394532 1.070312-.621094 2.226562-.621094 3.441406v11.144532c0 5.378906 4.265625 9.742187 9.523438 9.742187h492.953124c5.261719 0 9.523438-4.363281 9.523438-9.742187v-11.144532c0-1.214844-.226562-2.371094-.621094-3.441406-1.363281 3.675781-4.828125 6.296875-8.902344 6.296875zm0 0" fill="#ffd500"/><path d="m480.378906 270.980469c0 28.285156-22.929687 51.214843-51.21875 51.214843-28.285156 0-51.214844-22.929687-51.214844-51.214843 0-28.289063 22.929688-51.21875 51.214844-51.21875 28.289063 0 51.21875 22.929687 51.21875 51.21875zm0 0" fill="#685e68"/><path d="m408.515625 270.980469c0-22.964844 15.109375-42.394531 35.929687-48.898438-4.828124-1.503906-9.960937-2.320312-15.285156-2.320312-28.285156 0-51.214844 22.933593-51.214844 51.21875 0 28.285156 22.929688 51.214843 51.214844 51.214843 5.324219 0 10.457032-.8125 15.285156-2.320312-20.820312-6.5-35.929687-25.933594-35.929687-48.894531zm0 0" fill="#554e56"/><path d="m455.480469 270.980469c0 14.535156-11.785157 26.320312-26.320313 26.320312s-26.320312-11.785156-26.320312-26.320312c0-14.535157 11.785156-26.320313 26.320312-26.320313s26.320313 11.785156 26.320313 26.320313zm0 0" fill="#d9edff"/><path d="m433.410156 270.980469c0-8.835938 4.359375-16.648438 11.035156-21.421875-4.308593-3.082032-9.582031-4.898438-15.285156-4.898438-14.535156 0-26.320312 11.785156-26.320312 26.320313 0 14.535156 11.785156 26.320312 26.320312 26.320312 5.703125 0 10.976563-1.820312 15.285156-4.902343-6.675781-4.773438-11.035156-12.582032-11.035156-21.417969zm0 0" fill="#b4dbff"/><path d="m131.898438 270.980469c0 28.285156-22.933594 51.214843-51.21875 51.214843-28.285157 0-51.214844-22.929687-51.214844-51.214843 0-28.289063 22.929687-51.21875 51.214844-51.21875 28.285156 0 51.21875 22.929687 51.21875 51.21875zm0 0" fill="#685e68"/><path d="m60.03125 270.980469c0-22.964844 15.113281-42.394531 35.933594-48.898438-4.828125-1.503906-9.960938-2.320312-15.285156-2.320312-28.285157 0-51.21875 22.933593-51.21875 51.21875 0 28.285156 22.933593 51.214843 51.21875 51.214843 5.324218 0 10.457031-.8125 15.285156-2.320312-20.820313-6.5-35.933594-25.933594-35.933594-48.894531zm0 0" fill="#554e56"/><path d="m107 270.980469c0 14.535156-11.785156 26.320312-26.320312 26.320312-14.535157 0-26.320313-11.785156-26.320313-26.320312 0-14.535157 11.785156-26.320313 26.320313-26.320313 14.535156 0 26.320312 11.785156 26.320312 26.320313zm0 0" fill="#d9edff"/><path d="m84.929688 270.980469c0-8.835938 4.355468-16.648438 11.035156-21.421875-4.3125-3.082032-9.582032-4.898438-15.285156-4.898438-14.535157 0-26.320313 11.785156-26.320313 26.320313 0 14.535156 11.785156 26.320312 26.320313 26.320312 5.703124 0 10.972656-1.820312 15.285156-4.902343-6.679688-4.773438-11.035156-12.582032-11.035156-21.417969zm0 0" fill="#b4dbff"/></svg>